<svg width="375" height="667" viewBox="0 0 375 667" fill="none" xmlns="http://www.w3.org/2000/svg">
  <!-- Phone Frame -->
  <rect width="375" height="667" fill="#F0EEE9"/>
  
  <!-- Header -->
  <rect width="375" height="60" fill="white"/>
  <text x="187.5" y="38" font-family="Poppins" font-weight="600" font-size="20" fill="#333333" text-anchor="middle">Café Menu</text>
  
  <!-- Menu Items -->
  <!-- Item 1 -->
  <g transform="translate(16, 76)">
    <rect width="343" height="100" rx="8" fill="white"/>
    <rect x="12" y="12" width="76" height="76" rx="6" fill="#0DC0E0" opacity="0.2"/>
    <image x="12" y="12" width="76" height="76" href="data:image/svg+xml,%3Csvg xmlns='http://www.w3.org/2000/svg' viewBox='0 0 100 100'%3E%3Crect fill='%230DC0E0' opacity='0.3' width='100' height='100'/%3E%3Ctext x='50' y='55' font-family='Arial' font-size='14' fill='%23333' text-anchor='middle'%3EImage%3C/text%3E%3C/svg%3E"/>
    <text x="100" y="28" font-family="Poppins" font-weight="600" font-size="16" fill="#333333">Cappuccino</text>
    <text x="100" y="48" font-family="Inter" font-size="14" fill="#666666">Rich espresso with steamed milk</text>
    <text x="100" y="72" font-family="Poppins" font-weight="600" font-size="18" fill="#0DC0E0">$4.50</text>
  </g>
  
  <!-- Item 2 -->
  <g transform="translate(16, 192)">
    <rect width="343" height="100" rx="8" fill="white"/>
    <rect x="12" y="12" width="76" height="76" rx="6" fill="#0DC0E0" opacity="0.2"/>
    <text x="100" y="28" font-family="Poppins" font-weight="600" font-size="16" fill="#333333">Croissant</text>
    <text x="100" y="48" font-family="Inter" font-size="14" fill="#666666">Fresh baked daily</text>
    <text x="100" y="72" font-family="Poppins" font-weight="600" font-size="18" fill="#0DC0E0">$3.00</text>
  </g>
  
  <!-- Item 3 -->
  <g transform="translate(16, 308)">
    <rect width="343" height="100" rx="8" fill="white"/>
    <rect x="12" y="12" width="76" height="76" rx="6" fill="#0DC0E0" opacity="0.2"/>
    <text x="100" y="28" font-family="Poppins" font-weight="600" font-size="16" fill="#333333">Avocado Toast</text>
    <text x="100" y="48" font-family="Inter" font-size="14" fill="#666666">Sourdough with fresh avocado</text>
    <text x="100" y="72" font-family="Poppins" font-weight="600" font-size="18" fill="#0DC0E0">$8.50</text>
  </g>
  
  <!-- Item 4 -->
  <g transform="translate(16, 424)">
    <rect width="343" height="100" rx="8" fill="white"/>
    <rect x="12" y="12" width="76" height="76" rx="6" fill="#0DC0E0" opacity="0.2"/>
    <text x="100" y="28" font-family="Poppins" font-weight="600" font-size="16" fill="#333333">Caesar Salad</text>
    <text x="100" y="48" font-family="Inter" font-size="14" fill="#666666">Romaine, parmesan, croutons</text>
    <text x="100" y="72" font-family="Poppins" font-weight="600" font-size="18" fill="#0DC0E0">$9.00</text>
  </g>
  
  <!-- Bottom Bar -->
  <rect y="607" width="375" height="60" fill="white"/>
  <rect x="16" y="619" width="343" height="36" rx="6" fill="#0DC0E0"/>
  <text x="187.5" y="642" font-family="Inter" font-weight="600" font-size="16" fill="white" text-anchor="middle">View Cart (0)</text>
</svg>
